HIERARCHY
ROOT Hips
{
	OFFSET -0.001795 -0.223333 0.028219
	CHANNELS 6 Xposition Yposition Zposition Zrotation Yrotation Xrotation 
	JOINT LeftUpLeg
	{
		OFFSET 0.069520 -0.091406 -0.006815
		CHANNELS 3 Zrotation Yrotation Xrotation
		JOINT LeftLeg
		{
			OFFSET 0.034277 -0.375199 -0.004496
			CHANNELS 3 Zrotation Yrotation Xrotation
			JOINT LeftFoot
			{
				OFFSET -0.013596 -0.397961 -0.043693
				CHANNELS 3 Zrotation Yrotation Xrotation
				JOINT LeftToe
				{
					OFFSET 0.026358 -0.055791 0.119288
					CHANNELS 3 Zrotation Yrotation Xrotation
					End Site
					{
						OFFSET 0.000000 0.000000 0.000000
					}
				}
			}
		}
	}
	JOINT RightUpLeg
	{
		OFFSET -0.067670 -0.090522 -0.004320
		CHANNELS 3 Zrotation Yrotation Xrotation
		JOINT RightLeg
		{
			OFFSET -0.038290 -0.382569 -0.008850
			CHANNELS 3 Zrotation Yrotation Xrotation
			JOINT RightFoot
			{
				OFFSET 0.015774 -0.398415 -0.042312
				CHANNELS 3 Zrotation Yrotation Xrotation
				JOINT RightToe
				{
					OFFSET -0.025372 -0.048144 0.123348
					CHANNELS 3 Zrotation Yrotation Xrotation
					End Site
					{
						OFFSET 0.000000 0.000000 0.000000
					}
				}
			}
		}
	}
	JOINT Spine
	{
		OFFSET -0.002533 0.108963 -0.026696
		CHANNELS 3 Zrotation Yrotation Xrotation
		JOINT Spine1
		{
			OFFSET 0.005487 0.135180 0.001092
			CHANNELS 3 Zrotation Yrotation Xrotation
			JOINT Spine2
			{
				OFFSET 0.001457 0.052922 0.025425
				CHANNELS 3 Zrotation Yrotation Xrotation
				JOINT Neck
				{
					OFFSET -0.002778 0.213870 -0.042857
					CHANNELS 3 Zrotation Yrotation Xrotation
					JOINT Head
					{
						OFFSET 0.005152 0.064970 0.051349
						CHANNELS 3 Zrotation Yrotation Xrotation
						End Site
						{
							OFFSET 0.000000 0.000000 0.000000
						}
					}
				}
				JOINT LeftShoulder
				{
					OFFSET 0.078845 0.121749 -0.034090
					CHANNELS 3 Zrotation Yrotation Xrotation
					JOINT LeftArm
					{
						OFFSET 0.090977 0.030469 -0.008868
						CHANNELS 3 Zrotation Yrotation Xrotation
						JOINT LeftForeArm
						{
							OFFSET 0.259612 -0.012772 -0.027456
							CHANNELS 3 Zrotation Yrotation Xrotation
							JOINT LeftHand
							{
								OFFSET 0.249234 0.008986 -0.001171
								CHANNELS 3 Zrotation Yrotation Xrotation
								End Site
								{
									OFFSET 0.000000 0.000000 0.000000
								}
							}
						}
					}
				}
				JOINT RightShoulder
				{
					OFFSET -0.081759 0.118833 -0.038615
					CHANNELS 3 Zrotation Yrotation Xrotation
					JOINT RightArm
					{
						OFFSET -0.096012 0.032551 -0.009143
						CHANNELS 3 Zrotation Yrotation Xrotation
						JOINT RightForeArm
						{
							OFFSET -0.253742 -0.013329 -0.021401
							CHANNELS 3 Zrotation Yrotation Xrotation
							JOINT RightHand
							{
								OFFSET -0.255298 0.007772 -0.005559
								CHANNELS 3 Zrotation Yrotation Xrotation
								End Site
								{
									OFFSET 0.000000 0.000000 0.000000
								}
							}
						}
					}
				}
			}
		}
	}
}
MOTION
Frames: 13
Frame Time: 0.050000
0.000000 0.932913 0.000000 0.660831 18.520811 8.693814 10.185096 -0.945659 -12.359533 -9.587221 0.605128 2.649749 12.276131 24.302470 13.327056 0.000000 0.000000 0.000000 -8.812432 -0.394126 -22.277786 5.344257 -1.145957 9.465099 -5.800231 -13.503981 11.803784 0.000000 0.000000 0.000000 7.285858 -4.177985 25.240686 -4.944931 2.186795 -18.653698 -0.838492 -1.532836 24.920862 3.842167 -0.285509 -18.122515 0.000000 0.000000 0.000000 4.119145 -32.432823 9.911897 -7.781165 -49.335320 -2.276439 35.399110 -25.570718 -7.734203 0.000000 0.000000 0.000000 17.976456 15.770291 9.886046 49.276565 38.266175 8.971378 -2.878493 54.999212 3.210898 0.000000 0.000000 0.000000 
0.000073 0.932430 0.001722 0.365568 18.156919 9.926782 10.226496 -0.983163 -13.022156 -7.800482 0.439321 0.196080 14.432819 27.034933 18.089745 0.000000 0.000000 0.000000 -9.436475 -0.594378 -23.951216 8.143417 -1.879760 10.211869 -6.529779 -14.916250 12.466050 0.000000 0.000000 0.000000 5.230600 -3.665666 25.704724 -3.139245 1.687111 -19.958894 -1.294379 0.395167 25.921508 2.323208 1.026430 -18.217419 0.000000 0.000000 0.000000 4.860047 -30.589131 9.226027 -8.278394 -52.372198 -2.685848 35.498841 -23.038834 -7.062672 0.000000 0.000000 0.000000 22.159288 13.913519 10.352807 45.875071 36.915246 6.870711 4.432354 58.732236 7.882550 0.000000 0.000000 0.000000 
0.000164 0.931342 0.003053 -0.192509 18.611171 10.061331 10.835472 -1.020202 -13.845272 -7.560061 0.440221 0.952850 14.018805 26.626176 16.794837 0.000000 0.000000 0.000000 -8.779372 -0.432107 -23.570051 7.592531 -1.728894 9.854569 -6.017908 -13.910902 12.281337 0.000000 0.000000 0.000000 5.719708 -4.019635 26.537340 -4.811576 2.058786 -21.043249 -0.866102 -0.470597 26.315494 0.448600 2.235594 -19.131956 0.000000 0.000000 0.000000 5.685418 -30.713534 9.161605 -7.230733 -52.761623 -3.065686 33.953104 -20.099160 -5.791362 0.000000 0.000000 0.000000 21.238658 13.453878 9.666009 47.892376 34.630444 6.483150 6.009505 57.676849 8.535393 0.000000 0.000000 0.000000 
0.000119 0.932500 0.004196 -0.814616 19.092805 10.229901 11.463443 -1.046999 -14.395722 -7.200162 0.414293 0.902550 14.944071 27.720004 17.590062 0.000000 0.000000 0.000000 -8.213101 -0.322486 -23.466563 7.741677 -1.735162 9.219050 -5.804498 -13.444213 12.471714 0.000000 0.000000 0.000000 5.491966 -4.081717 26.968175 -4.985872 2.075498 -21.553582 -0.814092 -0.413284 26.304936 -0.121078 2.613244 -18.818481 0.000000 0.000000 0.000000 6.539199 -32.448535 9.465407 -5.438520 -51.615645 -3.692687 32.896559 -16.915582 -4.752455 0.000000 0.000000 0.000000 22.009089 13.318062 9.836033 46.661350 32.254900 5.107684 7.053213 56.805351 8.819703 0.000000 0.000000 0.000000 
0.000169 0.932105 0.005350 -1.074111 20.061458 10.691938 11.869618 -1.117936 -15.347328 -7.627768 0.431651 1.552149 14.821737 27.663539 17.158706 0.000000 0.000000 0.000000 -8.071158 -0.368765 -23.786749 7.814541 -1.742796 8.674100 -5.996103 -13.595227 13.621302 0.000000 0.000000 0.000000 4.639392 -4.173146 28.325872 -4.923512 2.042818 -22.230683 -1.095323 -0.816642 25.983479 -0.446402 2.886931 -20.029952 0.000000 0.000000 0.000000 6.104884 -32.555600 9.609531 -3.670383 -52.453915 -4.435888 33.838836 -15.035860 -4.360143 0.000000 0.000000 0.000000 21.881144 12.903951 9.601663 48.124790 30.848080 4.857835 7.598335 54.213329 8.599652 0.000000 0.000000 0.000000 
0.000244 0.933494 0.006067 -1.765155 20.389114 10.956315 12.360420 -1.132243 -15.486332 -7.399148 0.404682 1.076208 14.586643 27.398643 17.736862 0.000000 0.000000 0.000000 -7.330930 -0.223315 -24.070235 7.657404 -1.695033 8.455598 -5.452345 -12.552566 13.688907 0.000000 0.000000 0.000000 4.123727 -4.143802 28.826362 -5.343885 2.132020 -22.263863 -0.751380 -0.551121 25.749064 -0.127656 2.763294 -20.387079 0.000000 0.000000 0.000000 6.540547 -33.691708 9.832816 -2.314899 -51.837790 -4.942138 35.425684 -14.183029 -4.393083 0.000000 0.000000 0.000000 22.630657 13.315788 10.124225 47.088740 29.784155 4.145182 6.930708 53.554517 8.037051 0.000000 0.000000 0.000000 
0.000666 0.933199 0.006580 -2.048152 20.807947 11.540553 12.469949 -1.185938 -16.257370 -7.122304 0.383456 1.109213 14.577561 27.454039 17.594239 0.000000 0.000000 0.000000 -7.129090 -0.211061 -24.430066 7.568947 -1.633800 7.804753 -5.517027 -12.578789 14.316254 0.000000 0.000000 0.000000 3.532187 -4.109110 29.380731 -5.607344 2.165735 -22.651469 -0.747474 -0.541512 25.381846 -0.412981 2.962632 -20.609751 0.000000 0.000000 0.000000 5.790259 -33.002595 9.830033 -1.673569 -52.339272 -5.286868 37.680637 -13.984531 -4.655836 0.000000 0.000000 0.000000 23.628607 13.199981 10.367526 47.659976 28.726320 3.736275 5.902245 52.920724 7.455964 0.000000 0.000000 0.000000 
0.001112 0.933394 0.007001 -2.587447 20.916984 11.928551 12.795646 -1.210568 -16.793023 -7.111753 0.380322 1.071271 14.608449 27.532050 17.258658 0.000000 0.000000 0.000000 -6.528130 -0.090121 -24.889849 7.265726 -1.544950 7.591056 -5.606468 -12.721188 14.387877 0.000000 0.000000 0.000000 3.166674 -4.112443 29.910229 -6.093234 2.246354 -22.934116 -0.474764 -0.166482 25.043187 -0.068110 2.778511 -20.366592 0.000000 0.000000 0.000000 5.397288 -33.094478 9.950648 -0.924669 -51.595333 -5.528216 41.009741 -14.049599 -5.221184 0.000000 0.000000 0.000000 24.563202 12.874905 10.516394 47.520185 27.999992 3.316043 5.887532 53.259463 7.583918 0.000000 0.000000 0.000000 
0.001703 0.933075 0.007269 -2.982608 21.015483 12.413149 13.088232 -1.237177 -17.340588 -6.901559 0.370336 1.156290 14.741435 27.738638 17.041077 0.000000 0.000000 0.000000 -5.972792 0.020994 -25.388522 6.928277 -1.442270 7.274204 -5.790236 -13.014870 14.809506 0.000000 0.000000 0.000000 2.926965 -4.093577 30.121755 -6.263804 2.269380 -23.000511 -0.378432 -0.047802 24.651162 0.164476 2.711247 -21.210567 0.000000 0.000000 0.000000 5.207406 -32.564162 9.874959 -1.421971 -51.014156 -5.281120 44.437704 -14.160211 -5.823562 0.000000 0.000000 0.000000 25.266587 12.599149 10.560072 47.923071 27.243614 3.039716 6.224502 54.282734 8.035592 0.000000 0.000000 0.000000 
0.002344 0.933106 0.007435 -3.319014 21.150700 12.889944 13.445422 -1.263294 -17.892814 -7.003495 0.375843 1.283786 14.813302 27.867677 17.156089 0.000000 0.000000 0.000000 -5.467184 0.127593 -25.699050 6.690321 -1.389212 7.302518 -5.858199 -13.130574 14.543361 0.000000 0.000000 0.000000 2.644393 -4.030291 30.173176 -6.474500 2.293625 -23.184866 -0.428219 -0.190341 24.619622 0.540395 2.597440 -22.866103 0.000000 0.000000 0.000000 5.243398 -31.928366 9.717372 -1.731523 -51.177967 -5.197625 47.729177 -14.846518 -6.631701 0.000000 0.000000 0.000000 25.612375 12.467579 10.561926 48.225167 26.839750 2.890276 7.396628 55.211035 8.904723 0.000000 0.000000 0.000000 
0.003231 0.932804 0.007533 -3.582506 21.082210 13.054703 13.597884 -1.269035 -18.224103 -6.716332 0.365718 1.458676 14.721562 27.790319 17.132243 0.000000 0.000000 0.000000 -5.330221 0.160720 -25.922504 6.715891 -1.401367 7.455005 -5.859670 -13.156529 14.324644 0.000000 0.000000 0.000000 2.468918 -3.994114 30.304288 -6.671615 2.317989 -23.364657 -0.316648 -0.174389 24.636812 0.489389 2.674977 -23.622926 0.000000 0.000000 0.000000 4.754078 -31.946292 9.814691 -1.918829 -50.661473 -5.040589 49.950640 -15.973177 -7.508957 0.000000 0.000000 0.000000 26.162639 12.401596 10.656691 48.272660 26.551206 2.715868 9.465889 56.986270 10.506810 0.000000 0.000000 0.000000 
0.004360 0.932479 0.007466 -3.767150 21.308944 13.173134 13.739479 -1.287292 -18.480083 -6.638902 0.361272 1.703271 14.982412 28.106530 17.406035 0.000000 0.000000 0.000000 -5.252709 0.154961 -26.154874 6.528298 -1.371293 7.605080 -5.916949 -13.227478 14.321719 0.000000 0.000000 0.000000 2.501097 -4.093691 30.612626 -7.039856 2.374948 -23.552363 -0.361825 -0.643631 24.648425 0.481899 2.700896 -24.853814 0.000000 0.000000 0.000000 4.475784 -31.804723 9.834627 -1.668287 -50.456774 -5.033258 51.149832 -16.336078 -7.850549 0.000000 0.000000 0.000000 26.111257 12.707907 10.694667 48.457826 26.748492 2.872797 10.787119 58.099306 11.497791 0.000000 0.000000 0.000000 
0.005619 0.931997 0.007075 -3.815467 21.213328 13.331650 13.659729 -1.293948 -18.654015 -6.675350 0.363935 1.648305 15.486660 28.688567 17.640673 0.000000 0.000000 0.000000 -5.255498 0.144515 -26.525977 6.360712 -1.334872 7.729605 -5.858602 -13.137188 14.193001 0.000000 0.000000 0.000000 2.500727 -4.072273 30.531622 -7.336003 2.423279 -23.607067 -0.600456 -0.991096 24.873461 0.408999 2.754971 -25.932283 0.000000 0.000000 0.000000 4.298724 -32.003175 9.932994 -1.027513 -50.964521 -5.286552 51.325271 -17.565038 -8.363340 0.000000 0.000000 0.000000 26.217325 12.644268 10.554146 48.071040 26.895591 2.858754 12.162464 59.285072 12.596559 0.000000 0.000000 0.000000 
